<svg viewBox="0 0 1080 1080" version="1.1" xmlns="http://www.w3.org/2000/svg">
  <defs>
    <style>
      .cls-1 {
        fill: #fff;
      }
    </style>
  </defs>
  
  <g>
    <g id="Layer_1">
      <g>
        <path d="M93.1,97h78.1c65.5,0,117.1,1.2,117.1,104.4s-10.7,90.5-54.9,95.9v4.2c49.3,0,54.9,47.1,54.9,102.6,0,118.3-35.3,122.5-117.1,122.5h-78.1s0-429.7,0-429.7ZM170.2,271.4c24.2-1.8,40.9,8.5,40.9-56.1s-2.8-59.7-40.9-56.7v112.8ZM170.2,465.1c41.4,4.8,40.9-26,40.9-70.6s-8.4-61.5-40.9-61.5v132.1Z" class="cls-1"></path>
        <path d="M303,439.4V98.3h71.5c67.6,0,107.8,7.7,107.8,79.5s-15.8,70.4-54.3,77.6v1c34.2,1,54.3,15.3,54.3,64.2l1.3,95.1c0,13.4,2.1,33.5,10.7,47.4h-71.5c-8.5-13.9-10.3-34-10.3-47.4l-1.3-96c0-24-12.8-35.9-25.7-35.9h-11.6v155.7h-71ZM374.1,234.8c32.1,0,37.2-12,37.2-44.1s-4.7-43.6-37.2-43.6v87.7h0Z" class="cls-1"></path>
        <path d="M507.8,526.7V98.5h147.2v64.9h-76.2v93.8h73.6v64.9h-73.6v139.5h76.2v64.9h-147.2Z" class="cls-1"></path>
        <path d="M687.9,98.5h72.7l15,201.2,2.4,38,25.8-239.2h77l19.2,201.2,2.9,22.8,20.2-224h62.9l-37.7,305.3h-83l-29.5-240.6h-.8l-23.7,255.9h-81.7l-41.8-320.5h0Z" class="cls-1"></path>
        <path d="M93.1,543.6h78.1c65.5,0,117.1,1.2,117.1,107s-10.7,92.7-54.8,98.3v4.3c49.2,0,54.8,48.2,54.8,105.1,0,121.2-35.3,125.5-117.1,125.5h-78.1v-440.2h0ZM170.2,722.3c24.2-1.9,40.9,8.7,40.9-57.5s-2.8-61.2-40.9-58.1v115.6ZM170.2,920.7c41.3,5,40.9-26.6,40.9-72.3s-8.4-63.1-40.9-63.1v135.4h0Z" class="cls-1"></path>
        <path d="M307.7,983.8v-489.6h77.1v415.3h83.6v74.3h-160.8,0Z" class="cls-1"></path>
        <path d="M479.2,983.8v-423h77.1v423h-77.1Z" class="cls-1"></path>
        <path d="M693.4,711.9v-59.1c0-20.7-5.1-32.5-20.4-32.5s-20.5,11.8-20.5,32.5c0,70.9,118,91.6,118,221.5s-33.5,115.8-98,115.8-97.1-21.3-97.1-93.9v-78h77.1v72.7c0,24.8,6,31.9,20.5,31.9s20.4-7.1,20.4-31.9c0-95.1-118-96.9-118-232.8s39.5-105.2,99-105.2,96.2,22.5,96.2,92.8v66.2h-77.1Z" class="cls-1"></path>
        <path d="M909,773.8v-45.9c0-16.1-5.1-25.3-20.4-25.3s-20.4,9.2-20.4,25.3c0,55.1,118,71.2,118,172.3s-33.5,90-98,90-97.1-16.5-97.1-73v-60.6h77.1v56.5c0,19.3,6,24.8,20.4,24.8s20.4-5.5,20.4-24.8c0-74-118-75.3-118-181s39.5-81.8,99-81.8,96.2,17.5,96.2,72.1v51.4h-77.1Z" class="cls-1"></path>
        <path d="M968.8,520.4l.5,34.6c.2,11-.8,30-9.9,38.8l18.8-.3.7,43-21.3.3c-9.3.1-23.2,0-29.5-7.7-14.4,8.9-32.9,12.7-52.7,13-33.4.5-72.5-12.6-73.2-55.6l-.2-14.8c-.3-21.2,2.8-38.7,23.4-46.9-11-9.4-18.9-22.1-19.2-43.6-.7-45.6,34.1-53.7,65.9-54.2,19.5-.3,60.9,3.1,61.5,41.5l.3,17.7c.3,18.9-20.5,34.9-43.6,38.5,10.7,10.6,17.3,19.8,24.5,27.5h3.1s-.5-31.2-.5-31.2l51.3-.8h0ZM853.1,553l.4,25.6c1.8,17.7,6.7,30.7,24.9,30.5,7.4-.1,17.6-1.7,20-8.5l-45.2-47.6h0ZM857.6,481.1c.2,9.6,4.9,20,12.1,25.4,9.6-.1,13.1-11.8,12.9-27-.2-9.9-.6-19.5-12-19.3-13,.2-13.1,10.4-13,20.8h0Z" class="cls-1"></path>
      </g>
    </g>
  </g>
</svg>